<?xml version="1.0" standalone="no"?><!DOCTYPE svg PUBLIC "-//W3C//DTD SVG 1.1//EN" "http://www.w3.org/Graphics/SVG/1.1/DTD/svg11.dtd"><svg t="1533708469003" class="icon" style="" viewBox="0 0 1024 1024" version="1.1" xmlns="http://www.w3.org/2000/svg" p-id="5654" xmlns:xlink="http://www.w3.org/1999/xlink" width="200" height="200"><defs><style type="text/css"></style></defs><path d="M512 512m-512 0a512 512 0 1 0 1024 0 512 512 0 1 0-1024 0Z" fill="#42D1D9" p-id="5655"></path><path d="M742.4 558.08h-194.56v184.32c0 22.528-18.432 40.96-40.96 40.96s-40.96-18.432-40.96-40.96v-184.32h-184.32c-22.528 0-40.96-18.432-40.96-40.96s18.432-40.96 40.96-40.96h184.32v-194.56c0-22.528 18.432-40.96 40.96-40.96s40.96 18.432 40.96 40.96v194.56h194.56c22.528 0 40.96 18.432 40.96 40.96s-18.432 40.96-40.96 40.96z" fill="#FFFFFF" p-id="5656"></path></svg>