<?xml version="1.0" standalone="no"?><!DOCTYPE svg PUBLIC "-//W3C//DTD SVG 1.1//EN" "http://www.w3.org/Graphics/SVG/1.1/DTD/svg11.dtd"><svg t="1533519145619" class="icon" style="" viewBox="0 0 1024 1024" version="1.1" xmlns="http://www.w3.org/2000/svg" p-id="3989" xmlns:xlink="http://www.w3.org/1999/xlink" width="200" height="200"><defs><style type="text/css"></style></defs><path d="M831.232 454.272l34.496 34.688a49.024 49.024 0 0 1 0 69.472l-34.4 34.752-103.488-104.128 34.496-34.688a48.16 48.16 0 0 1 34.496-14.496c12.992-0.096 25.376 5.088 34.4 14.4z" fill="#FF0000" p-id="3990"></path><path d="M693.312 523.776l103.392 104.16-241.28 243.328-152.384 45.408 48.992-149.728z" fill="#0000FF" p-id="3991"></path><path d="M706.784 274.656H287.872a35.776 35.776 0 0 1-34.912-34.912A35.84 35.84 0 0 1 287.872 204.8h418.912c18.624 0 34.912 16.288 34.912 34.912a35.84 35.84 0 0 1-34.912 34.944zM493.504 602.816H271.456c-9.856 0-18.496-16.32-18.496-34.944s8.64-34.88 18.496-34.88h222.048c9.888 0 18.496 16.256 18.496 34.88 0 20.928-8.64 34.944-18.496 34.944zM606.72 439.872H287.872a35.776 35.776 0 0 1-34.912-34.88 35.84 35.84 0 0 1 34.912-34.944h318.848c18.592 0 34.88 16.32 34.88 34.944 0 18.592-13.952 34.88-34.88 34.88z" fill="#666666" p-id="3992"></path><path d="M730.016 1024H131.936c-44.224 0-81.44-37.184-81.44-81.44V90.784c0-44.224 37.248-81.44 81.44-81.44h758.688c44.224 0 81.472 37.248 81.472 81.44v635.328c0 18.624-16.32 34.944-34.944 34.944s-34.88-16.32-34.88-34.944V90.784c0-6.976-4.672-11.648-11.648-11.648H131.936c-6.976 0-11.648 4.672-11.648 11.648v849.472c0 7.008 4.672 11.616 11.648 11.616h598.08c18.624 0 34.944 16.32 34.944 34.944 0 18.56-16.288 37.184-34.944 37.184z" fill="#666666" p-id="3993"></path><path d="M292.576 4.672H890.688c22.112 0 42.464 9.312 57.312 24.128 14.816 14.816 24.128 35.2 24.128 57.312V937.92a81.28 81.28 0 0 1-24.128 57.28c-14.848 14.848-35.2 24.16-57.312 24.16H131.968c-22.112 0-42.464-9.312-57.312-24.16s-24.16-35.2-24.16-57.28V302.528c0-9.312 4.096-18.048 10.464-24.448 6.432-6.432 15.168-10.496 24.48-10.496s18.016 4.064 24.416 10.496c6.4 6.4 10.464 15.136 10.464 24.448V937.92c0 3.488 1.152 6.368 3.232 8.448 2.016 2.016 4.928 3.2 8.448 3.2h758.656c3.488 0 6.4-1.152 8.448-3.2a11.712 11.712 0 0 0 3.2-8.448V88.416c0-3.488-1.152-6.4-3.2-8.448s-4.928-3.2-8.448-3.2H292.576c-9.312 0-18.016-4.064-24.48-10.496a34.88 34.88 0 0 1-10.464-24.416c0-9.28 4.096-18.56 10.464-25.568 6.432-6.976 15.168-11.616 24.48-11.616z" fill="#666666" p-id="3994"></path></svg>