<?xml version="1.0" standalone="no"?><!DOCTYPE svg PUBLIC "-//W3C//DTD SVG 1.1//EN" "http://www.w3.org/Graphics/SVG/1.1/DTD/svg11.dtd"><svg t="1533519746103" class="icon" style="" viewBox="0 0 1024 1024" version="1.1" xmlns="http://www.w3.org/2000/svg" p-id="5236" xmlns:xlink="http://www.w3.org/1999/xlink" width="200" height="200"><defs><style type="text/css"></style></defs><path d="M860.16 61.44l-40.96 40.96 129.706667 129.706667 40.96-40.96L860.16 61.44zM395.946667 525.653333l129.706666 129.706667L907.946667 273.066667l-129.706667-129.706667-382.293333 382.293333z m-81.92 211.626667l170.666666-40.96-129.706666-129.706667-40.96 170.666667z" fill="#19AFE7" p-id="5237"></path><path d="M750.933333 1024H204.8c-116.053333 0-204.8-88.746667-204.8-204.8V273.066667c0-116.053333 88.746667-204.8 204.8-204.8h307.2c40.96 0 68.266667 27.306667 68.266667 68.266666s-27.306667 68.266667-68.266667 68.266667H204.8c-40.96 0-68.266667 27.306667-68.266667 68.266667v546.133333c0 40.96 27.306667 68.266667 68.266667 68.266667h546.133333c40.96 0 68.266667-27.306667 68.266667-68.266667V614.4c0-40.96 27.306667-68.266667 68.266667-68.266667s68.266667 27.306667 68.266666 68.266667v204.8c0 116.053333-88.746667 204.8-204.8 204.8z" fill="#19AFE7" p-id="5238"></path></svg>