<?xml version="1.0" standalone="no"?><!DOCTYPE svg PUBLIC "-//W3C//DTD SVG 1.1//EN" "http://www.w3.org/Graphics/SVG/1.1/DTD/svg11.dtd"><svg t="1533518824830" class="icon" style="" viewBox="0 0 1024 1024" version="1.1" xmlns="http://www.w3.org/2000/svg" p-id="761" xmlns:xlink="http://www.w3.org/1999/xlink" width="200" height="200"><defs><style type="text/css"></style></defs><path d="M512.457654 241.984358l-33.980782 58.236424h67.16067l-33.179888-58.236424z m213.495419 112.926033H299.419888c-15.10257 0-27.344804 12.242235-27.344804 27.344805v287.864134c0 15.10257 12.242235 27.344804 27.344804 27.344804h426.418771c15.10257 0 27.344804-12.242235 27.344805-27.344804V382.255196c0-15.10257-12.242235-27.344804-27.230391-27.344805z m-180.773185 239.467263H375.275978c-15.10257 0-27.344804-12.242235-27.344805-27.344805s12.242235-27.344804 27.344805-27.344804h169.90391c15.10257 0 27.344804 12.242235 27.344805 27.344804-0.114413 15.10257-12.242235 27.344804-27.344805 27.344805z m104.917095-99.882905H375.275978c-15.10257 0-27.344804-12.242235-27.344805-27.344805s12.242235-27.344804 27.344805-27.344804h274.821005c15.10257 0 27.344804 12.242235 27.344805 27.344804s-12.242235 27.344804-27.344805 27.344805zM512 0C229.284469 0 0 229.284469 0 512S229.284469 1024 512 1024 1024 794.715531 1024 512 794.715531 0 512 0z m295.873073 670.11933c0 45.193296-36.726704 81.92-81.92 81.92H299.419888c-45.193296 0-81.92-36.726704-81.92-81.92V382.255196c0-45.193296 36.726704-81.92 81.92-81.92H415.32067l49.884246-85.810056c9.953966-17.047598 27.573631-27.115978 47.252738-27.115978h0.34324c19.79352 0.114413 37.413184 10.41162 47.138324 27.573631l48.511285 85.352403h117.50257c45.193296 0 81.92 36.726704 81.92 81.92v287.864134z" fill="#1A70CC" p-id="762"></path></svg>